<?xml version="1.0" encoding="utf-8"?>
<!-- Generator: Adobe Illustrator 18.0.0, SVG Export Plug-In . SVG Version: 6.00 Build 0)  -->
<!DOCTYPE svg PUBLIC "-//W3C//DTD SVG 1.1//EN" "http://www.w3.org/Graphics/SVG/1.1/DTD/svg11.dtd">
<svg version="1.1" xmlns="http://www.w3.org/2000/svg" xmlns:xlink="http://www.w3.org/1999/xlink" x="0px" y="0px"
	 viewBox="0 0 300 100" style="enable-background:new 0 0 300 100;" xml:space="preserve">
<style type="text/css">
	.st0{fill-rule:evenodd;clip-rule:evenodd;}
	.st1{fill-rule:evenodd;clip-rule:evenodd;fill:#C038F9;}
	.st2{fill:none;}
	.st3{fill-rule:evenodd;clip-rule:evenodd;fill:#231F20;}
</style>
<g id="Layer_2">
	<g>
		<polygon class="st0" points="228,32.2 245,69.2 252.4,54.1 259.8,69.2 276.5,32.2 268,32.2 259.1,52.4 255.8,45.6 262.1,32.4
			254.2,32.2 252.4,37.1 250,32.2 242.4,32.2 248.5,45.3 245.4,52.3 235.9,32.2 228,32.2 228,32.2 		"/>
		<polygon class="st0" points="72.5,30.8 94.6,51.6 94.6,32.1 101.7,32.1 101.7,68.2 79.7,47 79.7,67 72.5,67 72.5,30.8 72.5,30.8
					"/>
		<path class="st0" d="M105.7,32.2h15.1c2.3,0,8.9,1.8,9.1,8.8c0.2,5.3-4.1,7.7-4.1,7.7c2.3,1.1,5.9,3.8,5.9,9.4
			c0,5.4-4.7,9.4-8.8,9.4h-17.1V32.2L105.7,32.2L105.7,32.2L105.7,32.2z M112.9,46.4h5.5c2.2-0.3,3.8-1.9,3.8-4.3c0-2.5-2.2-3.9-4-4
			h-5.3V46.4L112.9,46.4L112.9,46.4L112.9,46.4z M113,61.7c1.2,0,6.4,0,6.4,0c1.6-0.1,4.4-1.5,4.4-4.7c0-3.1-2.7-4.6-4.2-4.6H113
			L113,61.7L113,61.7L113,61.7z"/>
		<path class="st0" d="M158.9,39.7c-7.6-5-17.8,0.1-18.4,9.4c-0.3,11.3,10.9,15.9,18.4,11.1c0,0.2,0,7.2,0,7.2
			c-13.4,5-25.6-4.4-25.7-18.1c0-11.6,12.8-21.8,25.7-16.7V39.7L158.9,39.7z"/>
		<path class="st0" d="M289.5,54.3c-10.7-7.1-9.8-6.4-10.6-7.6c-0.8-1.2-3-7.6,2.1-13c5.1-5.5,15.5-0.8,15.5-0.8v7
			c0,0-8.8-5.1-11.3-0.4c-2.5,4.7,6.7,7.5,6.7,7.5s6.1,3.6,6.7,7.5c0.6,3.9,0.1,11.7-6.1,13.2c0,0-6,3.3-14.2-0.9l0.1-7.9
			c0,0,3.5,3.8,8.4,3.6C291.7,62.1,293.2,56.7,289.5,54.3L289.5,54.3L289.5,54.3z"/>
		<polygon class="st0" points="206.7,31.9 206.7,67.4 226.1,67.4 226.2,61.5 214.3,61.5 214.3,53 226.2,53 226.2,46.4 214.3,46.4
			214.3,38.5 226.2,38.5 226.2,31.9 206.7,31.9 206.7,31.9 		"/>
		<polygon class="st0" points="174,30.8 196.1,51.9 196.1,32.2 203.3,32.2 203.3,68.6 181.2,47.2 181.2,67.4 174,67.4 174,30.8
			"/>
		<path class="st0" d="M53.6,52.8l-17.9,12l6-14.3l2.9-6.7c1.2-2.2,3.3-3.5,5.7-3.6c2.3,0,4.3,1.1,5.6,3.1c1.3,2,1.4,5.2,0.1,7.2
			C55.4,51.4,54.5,52.2,53.6,52.8L53.6,52.8L53.6,52.8z"/>
		<path class="st0" d="M44.7,41.5l-8.8,20.9l-0.4-2.3L32.8,43c-0.1-1,0.3-1.9,1.2-2.5l1.3-0.8c0.1-0.3-0.3-0.4-0.5-0.4l-2.5,0
			c-0.2-2.5,0.9-4.7,3-6.1c1.6-1.1,4.1-1.3,5.9-0.5c2.4,1,4,3.5,4,6C45.2,39.7,45,40.7,44.7,41.5L44.7,41.5L44.7,41.5z"/>
		<path class="st0" d="M27.7,62.5l-8.7-21c-0.9-2.2-0.5-5.2,1.1-7c1.7-1.9,4.1-2.7,6.6-2.1c2.1,0.5,4.1,2.5,4.6,4.7
			c0.2,0.8,0.2,1.8,0.2,2.7L27.7,62.5L27.7,62.5L27.7,62.5z"/>
		<path class="st0" d="M9.1,52c-1.8-1.6-2.6-3.6-2.3-6c0.3-2.4,2.2-4.8,4.4-5.5c2.3-0.7,4.9-0.2,6.6,1.6c0.7,0.7,1.2,1.5,1.5,2.3
			l8.4,20.4L9.1,52L9.1,52L9.1,52z"/>
		<path class="st0" d="M7.2,66.9c-2.3-0.3-4.1-1.5-5.2-3.7c-1.1-2.2-0.8-5.2,0.7-7.1c1.6-1.9,4-2.9,6.3-2.4c1,0.2,1.8,0.6,2.5,1
			l18.1,12.2L7.2,66.9L7.2,66.9z"/>
		<path class="st0" d="M56.3,66.9c2.3-0.3,4.1-1.5,5.2-3.7c1.1-2.2,0.8-5.2-0.7-7.1c-1.6-1.9-4-2.9-6.3-2.4c-1,0.2-1.8,0.6-2.5,1
			L33.9,66.9L56.3,66.9L56.3,66.9L56.3,66.9z"/>
	</g>
</g>
<g id="Layer_1">
</g>
</svg>
