<?xml version="1.0" encoding="UTF-8"?>
<svg width="500px" height="501px" viewBox="0 0 500 501" version="1.1" xmlns="http://www.w3.org/2000/svg" xmlns:xlink="http://www.w3.org/1999/xlink">
  <rect id="Rectangle" fill="#808080" x="0" y="0.302230916" width="500" height="500" rx="40"></rect>
  <path d="M250,0.302230916 C308.170019,24.7370187 358.170019,57.9696084 400,100 C441.829981,142.030392 475.163314,192.530392 500,251.5 L500,500 L250,500.302231 C221.63819,445.122604 186.63819,396.688527 145,355 C103.36181,313.311473 55.0284771,278.311473 0,250 L0,0.302230916 L250,0.302230916 Z" id="Path" fill="#D8D8D8"></path>
  <path d="M0,292 L214,500 L250,500.302231 C221.727192,445.312458 186.747367,396.948952 145.060525,355.211714 C103.373684,313.474476 55.0201751,278.403905 0,250 L0,292 Z" id="Path-Copy" fill="#494949"></path>
</svg>